<svg width="57" height="57" viewBox="0 0 57 57" fill="none" xmlns="http://www.w3.org/2000/svg">
<path d="M52.9062 1.1355H4.09371C3.30911 1.1355 2.55665 1.44718 2.00185 2.00197C1.44706 2.55677 1.13538 3.30923 1.13538 4.09383V52.9063C1.13538 53.6909 1.44706 54.4434 2.00185 54.9982C2.55665 55.553 3.30911 55.8647 4.09371 55.8647H52.9062C53.6908 55.8647 54.4433 55.553 54.9981 54.9982C55.5529 54.4434 55.8645 53.6909 55.8645 52.9063V4.09383C55.8645 3.30923 55.5529 2.55677 54.9981 2.00197C54.4433 1.44718 53.6908 1.1355 52.9062 1.1355Z" stroke="#DFA916" stroke-width="0.95" stroke-linecap="round" stroke-linejoin="round"/>
<path d="M15.7643 55.8647L23.7828 39.0715L25.8204 43.6337L30.9604 29.393L33.5408 32.802L37.2597 24.5733L38.9286 26.6885L55.8645 6.50879" stroke="#DFA916" stroke-width="0.95" stroke-linecap="round" stroke-linejoin="round"/>
<path d="M14.1106 13.8296H11.5704" stroke="#DFA916" stroke-width="0.95" stroke-linecap="round" stroke-linejoin="round"/>
<path d="M14.1106 13.8296V20.998H18.8419C19.3164 21.0041 19.7875 20.9159 20.2277 20.7385C20.6678 20.5611 21.0684 20.2981 21.4062 19.9646C21.7439 19.6312 22.0121 19.234 22.1951 18.7962C22.3781 18.3583 22.4724 17.8884 22.4724 17.4138C22.4724 16.9392 22.3781 16.4693 22.1951 16.0315C22.0121 15.5936 21.7439 15.1964 21.4062 14.863C21.0684 14.5296 20.6678 14.2665 20.2277 14.0891C19.7875 13.9117 19.3164 13.8235 18.8419 13.8296H14.1106Z" stroke="#DFA916" stroke-width="0.95" stroke-linejoin="round"/>
<path d="M14.1106 20.9979V28.6383H19.1534C19.6595 28.6453 20.162 28.5517 20.6317 28.3629C21.1013 28.1741 21.5288 27.8938 21.8892 27.5384C22.2496 27.1829 22.5358 26.7594 22.7311 26.2924C22.9265 25.8254 23.0271 25.3243 23.0271 24.8181C23.0271 24.3119 22.9265 23.8108 22.7311 23.3438C22.5358 22.8768 22.2496 22.4533 21.8892 22.0978C21.5288 21.7424 21.1013 21.4621 20.6317 21.2733C20.162 21.0845 19.6595 20.9909 19.1534 20.9979H14.1106Z" stroke="#DFA916" stroke-width="0.95" stroke-linejoin="round"/>
<path d="M14.1106 28.6333H11.5704" stroke="#DFA916" stroke-width="0.95" stroke-linecap="round" stroke-linejoin="round"/>
<path d="M14.1051 28.6799V31.0309" stroke="#DFA916" stroke-width="0.95" stroke-linecap="round" stroke-linejoin="round"/>
<path d="M18.215 28.6799V31.0309" stroke="#DFA916" stroke-width="0.95" stroke-linecap="round" stroke-linejoin="round"/>
<path d="M14.1051 11.2415V13.5926" stroke="#DFA916" stroke-width="0.95" stroke-linecap="round" stroke-linejoin="round"/>
<path d="M18.215 11.2415V13.5926" stroke="#DFA916" stroke-width="0.95" stroke-linecap="round" stroke-linejoin="round"/>
</svg>
